<?xml version="1.0" standalone="no"?>
<!DOCTYPE svg PUBLIC "-//W3C//DTD SVG 20010904//EN"
 "http://www.w3.org/TR/2001/REC-SVG-20010904/DTD/svg10.dtd">
<svg version="1.0" xmlns="http://www.w3.org/2000/svg"
 width="300.000000pt" height="300.000000pt" viewBox="0 0 300.000000 300.000000"
 preserveAspectRatio="xMidYMid meet">
<metadata>
Created by potrace 1.11, written by Peter Selinger 2001-2013
</metadata>
<g transform="translate(0.000000,300.000000) scale(0.100000,-0.100000)"
fill="#000000" stroke="none">
<path d="M0 2745 l0 -255 1205 0 1205 0 0 -50 0 -50 -1205 0 -1205 0 0 -1195
0 -1195 1205 0 1205 0 0 1195 0 1195 50 0 50 0 0 -1195 0 -1195 245 0 245 0 0
1195 0 1195 -245 0 -245 0 0 50 0 50 245 0 245 0 0 255 0 255 -245 0 -245 0 0
-255 0 -255 -50 0 -50 0 0 255 0 255 -1205 0 -1205 0 0 -255z"/>
</g>
</svg>
